<?xml version="1.0" standalone="no"?>
<!DOCTYPE svg PUBLIC "-//W3C//DTD SVG 20010904//EN"
 "http://www.w3.org/TR/2001/REC-SVG-20010904/DTD/svg10.dtd">
<svg version="1.0" xmlns="http://www.w3.org/2000/svg"
 width="938.000000pt" height="938.000000pt" viewBox="0 0 938.000000 938.000000"
 preserveAspectRatio="xMidYMid meet">
<metadata>
Created by potrace 1.11, written by Peter Selinger 2001-2013
</metadata>
<g transform="translate(0.000000,938.000000) scale(0.100000,-0.100000)"
fill="#000000" stroke="none">
<path d="M4438 9375 c-2 -2 -43 -6 -93 -9 -49 -4 -103 -8 -120 -10 -16 -2 -59
-7 -95 -11 -36 -3 -92 -11 -125 -17 -33 -5 -69 -11 -80 -13 -176 -23 -482
-100 -720 -180 -368 -123 -640 -252 -1019 -480 -102 -62 -296 -202 -431 -310
-448 -361 -808 -775 -1106 -1275 -81 -136 -279 -531 -279 -557 0 -3 -7 -19
-15 -36 -33 -73 -138 -369 -160 -452 -5 -16 -9 -34 -11 -40 -19 -62 -57 -207
-60 -230 -3 -16 -12 -55 -19 -85 -7 -30 -16 -71 -19 -90 -3 -19 -12 -71 -20
-115 -13 -73 -20 -121 -31 -215 -2 -19 -6 -53 -9 -75 -21 -168 -28 -661 -12
-845 7 -90 42 -368 51 -410 3 -14 10 -52 15 -85 11 -70 52 -252 74 -335 36
-135 94 -320 106 -342 6 -10 10 -25 10 -33 0 -8 4 -23 9 -33 5 -9 26 -60 46
-112 106 -275 244 -546 416 -817 43 -67 82 -128 88 -135 6 -7 37 -49 68 -93
183 -260 539 -646 744 -806 24 -19 50 -41 59 -50 57 -60 500 -375 580 -412 8
-4 42 -23 75 -42 66 -39 374 -194 470 -237 127 -57 493 -189 563 -203 9 -2 58
-14 107 -28 82 -23 234 -58 310 -71 17 -3 44 -8 60 -11 17 -3 39 -8 50 -10 25
-4 225 -32 285 -39 231 -27 817 -28 974 -1 12 2 44 7 71 10 68 7 135 16 165
21 14 3 63 12 110 20 47 8 94 17 105 19 65 11 217 49 325 80 154 44 142 41
160 48 8 3 40 13 70 23 386 119 1008 442 1295 671 6 5 51 39 100 78 432 333
834 785 1123 1262 34 57 62 105 62 109 0 3 8 18 19 32 20 28 191 364 191 375
0 4 11 30 25 59 89 192 204 543 266 813 27 120 23 100 32 156 8 46 13 74 21
116 3 11 8 43 12 70 3 26 8 55 9 63 2 9 6 43 10 75 3 33 8 74 10 90 26 205 26
801 0 955 -2 14 -7 43 -9 65 -12 98 -19 151 -22 170 -2 11 -11 63 -19 115 -9
52 -20 109 -25 125 -5 17 -11 46 -14 66 -3 20 -8 42 -10 50 -3 8 -8 25 -10 39
-11 57 -82 306 -103 360 -4 8 -7 17 -8 20 -37 149 -243 613 -347 787 -21 35
-38 65 -38 68 0 11 -158 257 -238 369 -249 353 -528 649 -887 942 -143 117
-469 344 -495 344 -5 0 -10 5 -10 10 0 6 -5 10 -11 10 -5 0 -51 24 -102 54
-112 66 -314 167 -460 231 -285 123 -722 259 -967 299 -19 3 -44 7 -55 10 -11
2 -40 7 -65 11 -25 4 -52 9 -61 10 -31 6 -264 34 -334 41 -70 6 -621 14 -627
9z"/>
</g>
</svg>
