<svg width="508" height="508" viewBox="0 0 508 508" fill="none" xmlns="http://www.w3.org/2000/svg">
<path d="M508 254C508 394.4 394.4 508 254 508C113.6 508 0 394.4 0 254C0 113.6 113.6 0 254 0C364.8 0 458.8 70.8 493.6 169.6C501.2 190.8 505.6 213.2 507.2 236.4C508 242.4 508 248 508 254Z" fill="#F4F4F4"/>
<path d="M205.219 330.076L205.129 330.182L205.106 330.32L196.956 380.776L166.216 318.518L374.752 130.992L205.219 330.076Z" fill="#191919" stroke="#F4F4F4"/>
<path d="M380 125.6L165.6 318.4L74 303.6L380 125.6Z" fill="#191919"/>
<path d="M197.2 382.4L380 125.6L205.6 330.4L197.2 382.4Z" fill="#191919"/>
<path d="M380.492 125.691L380.833 123.851L379.619 125.276L205.219 330.076L204.687 330.701L205.487 330.887L336.287 361.287L336.796 361.405L336.892 360.891L380.492 125.691Z" fill="#191919" stroke="#F4F4F4"/>
</svg>
