<svg width="80" height="80" xmlns="http://www.w3.org/2000/svg">
 <title/>

 <g>
  <title>background</title>
  <rect fill="none" id="canvas_background" height="82" width="82" y="-1" x="-1"/>
 </g>
 <g>
  <title>Layer 1</title>
  <path fill="#f4f4f4" id="svg_1" d="m49.65,20.92l-19.3,0a9.42,9.42 0 0 0 -9.42,9.42l0,19.31a9.42,9.42 0 0 0 9.42,9.42l19.3,0a9.42,9.42 0 0 0 9.42,-9.42l0,-19.3a9.42,9.42 0 0 0 -9.42,-9.43zm-9.65,31.43a12.35,12.35 0 1 1 12.35,-12.35a12.37,12.37 0 0 1 -12.35,12.35zm12.38,-21.65a3,3 0 1 1 3,-3a3,3 0 0 1 -3,3z"/>
  <circle fill="#f4f4f4" id="svg_2" r="7.55" cy="40" cx="40"/>
  <path fill="#f4f4f4" id="svg_3" d="m40,0a40,40 0 1 0 40,40a40,40 0 0 0 -40,-40zm23.88,49.65a14.25,14.25 0 0 1 -14.23,14.23l-19.3,0a14.25,14.25 0 0 1 -14.23,-14.23l0,-19.3a14.25,14.25 0 0 1 14.23,-14.23l19.3,0a14.25,14.25 0 0 1 14.23,14.23l0,19.3z"/>
 </g>
</svg>