<svg width="460" height="460" viewBox="0 0 460 460" fill="none" xmlns="http://www.w3.org/2000/svg">
<path fill-rule="evenodd" clip-rule="evenodd" d="M0 230C0 103.036 103.035 0.00100708 230 0.00100708C356.963 0.00100708 459.999 103.036 459.999 230C459.999 356.963 356.962 459.999 230 459.999C103.035 459.999 0 356.963 0 230ZM313.467 335.076C317.085 337.21 319.495 338.416 323.391 338.416C330.902 338.416 337.487 332.572 337.488 324.132C337.488 315.694 334.149 312.448 328.492 308.83C262.274 269.228 184.649 267.746 108.695 284.532C101.739 286.016 96.081 290.56 96.081 300.111C96.081 307.623 101.738 314.766 110.734 314.766C112.845 314.766 116.215 313.851 119.316 313.008C120.165 312.777 120.993 312.552 121.77 312.353C188.267 298.721 255.597 300.207 313.467 335.076ZM338.175 274.35L338.174 274.35L338.172 274.349C337.758 274.124 337.345 273.899 336.931 273.681C278.967 239.367 192.532 225.548 115.65 246.416C114.472 246.734 113.437 247.053 112.475 247.349L112.475 247.349C109.799 248.173 107.683 248.824 104.614 248.824C94.691 248.824 86.622 240.757 86.622 230.835C86.622 220.91 91.444 214.327 100.997 211.637C126.78 204.403 153.118 199.025 191.7 199.025C251.887 199.025 310.037 213.956 355.851 241.22C363.363 245.672 366.331 251.421 366.331 259.491C366.237 269.509 358.446 277.576 348.339 277.576C344.114 277.576 341.102 275.94 338.175 274.35ZM365.125 203.291C369.298 205.702 372.265 206.907 377.087 206.907C388.403 206.907 398.604 197.912 398.604 185.299C398.604 174.261 393.875 168.512 386.641 164.339C334.797 134.105 263.852 120.008 196.149 120.008C156.362 120.008 119.823 124.552 87.178 134.105C78.832 136.516 71.04 143.658 71.04 156.27C71.04 168.604 80.407 178.157 92.648 178.157C96.3628 178.157 99.8834 177.125 102.887 176.245C103.483 176.07 104.06 175.901 104.613 175.747C181.032 154.416 299.093 163.876 365.125 203.291Z" fill="#F4F4F4"/>
</svg>
